<svg width="390" height="800" viewBox="0 0 390 800" fill="none" xmlns="http://www.w3.org/2000/svg">
<g clip-path="url(#clip0_86_37)">
<path opacity="0.35" d="M320 199.052C391.797 199.052 450 143.884 450 75.8295C450 7.7754 391.797 -47.3933 320 -47.3933C248.203 -47.3933 190 7.7754 190 75.8295C190 143.884 248.203 199.052 320 199.052Z" stroke="#8A96B8" stroke-width="1.2"/>
<path opacity="0.25" d="M330 180.095C385.228 180.095 430 137.657 430 85.3081C430 32.9588 385.228 -9.47864 330 -9.47864C274.772 -9.47864 230 32.9588 230 85.3081C230 137.657 274.772 180.095 330 180.095Z" stroke="#8A96B8"/>
<path opacity="0.2" d="M310 218.009C398.366 218.009 470 150.11 470 66.3507C470 -17.4081 398.366 -85.3081 310 -85.3081C221.634 -85.3081 150 -17.4081 150 66.3507C150 150.11 221.634 218.009 310 218.009Z" stroke="#7A8AAE" stroke-width="0.8"/>
<path opacity="0.35" d="M50 748.488C110.751 748.488 160 701.807 160 644.222C160 586.638 110.751 539.957 50 539.957C-10.7513 539.957 -60 586.638 -60 644.222C-60 701.807 -10.7513 748.488 50 748.488Z" stroke="#8A96B8" stroke-width="1.2"/>
<path opacity="0.25" d="M45 715.313C89.1828 715.313 125 681.363 125 639.483C125 597.604 89.1828 563.654 45 563.654C0.817219 563.654 -35 597.604 -35 639.483C-35 681.363 0.817219 715.313 45 715.313Z" stroke="#8A96B8"/>
<path opacity="0.2" d="M55 786.403C132.32 786.403 195 726.99 195 653.701C195 580.412 132.32 521 55 521C-22.3199 521 -85 580.412 -85 653.701C-85 726.99 -22.3199 786.403 55 786.403Z" stroke="#7A8AAE" stroke-width="0.8"/>
<path opacity="0.12" d="M200 483.412C249.706 483.412 290 445.219 290 398.104C290 350.99 249.706 312.796 200 312.796C150.294 312.796 110 350.99 110 398.104C110 445.219 150.294 483.412 200 483.412Z" stroke="#8A96B8" stroke-width="0.7"/>
<path opacity="0.2" d="M395.5 521C442.72 521 481 482.944 481 436C481 389.056 442.72 351 395.5 351C348.28 351 310 389.056 310 436C310 482.944 348.28 521 395.5 521Z" stroke="#8A96B8"/>
</g>
<defs>
<clipPath id="clip0_86_37">
<rect width="390" height="800" fill="white"/>
</clipPath>
</defs>
</svg>
