<svg width="22" height="22" viewBox="0 0 22 22" fill="none" xmlns="http://www.w3.org/2000/svg">
<path d="M16.5 2.75H5.5C3.98122 2.75 2.75 3.98122 2.75 5.5V16.5C2.75 18.0188 3.98122 19.25 5.5 19.25H16.5C18.0188 19.25 19.25 18.0188 19.25 16.5V5.5C19.25 3.98122 18.0188 2.75 16.5 2.75Z" stroke="#8A95B0" stroke-width="1.65" stroke-linecap="round"/>
<path d="M7.79175 9.16669C8.55114 9.16669 9.16675 8.55108 9.16675 7.79169C9.16675 7.0323 8.55114 6.41669 7.79175 6.41669C7.03236 6.41669 6.41675 7.0323 6.41675 7.79169C6.41675 8.55108 7.03236 9.16669 7.79175 9.16669Z" stroke="#8A95B0" stroke-width="1.65" stroke-linecap="round"/>
<path d="M19.2499 13.75L14.6666 9.16669L4.58325 19.25" stroke="#8A95B0" stroke-width="1.65" stroke-linecap="round"/>
</svg>
