<svg width="15" height="15" viewBox="0 0 15 15" fill="none" xmlns="http://www.w3.org/2000/svg">
<path d="M13.025 2.88129C12.7057 2.56192 12.3267 2.30857 11.9095 2.13572C11.4924 1.96287 11.0453 1.8739 10.5937 1.8739C10.1421 1.8739 9.69502 1.96287 9.27786 2.13572C8.86069 2.30857 8.48168 2.56192 8.16245 2.88129L7.49995 3.54379L6.83745 2.88129C6.19264 2.23648 5.3181 1.87424 4.4062 1.87424C3.49431 1.87424 2.61976 2.23648 1.97495 2.88129C1.33014 3.5261 0.967896 4.40065 0.967896 5.31254C0.967896 6.22444 1.33014 7.09898 1.97495 7.74379L2.63745 8.40629L7.49995 13.2688L12.3625 8.40629L13.025 7.74379C13.3443 7.42457 13.5977 7.04555 13.7705 6.62839C13.9434 6.21123 14.0323 5.7641 14.0323 5.31254C14.0323 4.86099 13.9434 4.41386 13.7705 3.9967C13.5977 3.57953 13.3443 3.20051 13.025 2.88129Z" fill="#B06B8A" stroke="#B06B8A" stroke-width="0.9375"/>
</svg>
