<svg width="11" height="2" viewBox="0 0 11 2" fill="none" xmlns="http://www.w3.org/2000/svg">
<path d="M0.989922 1.98008C0.689922 1.98008 0.449922 1.89008 0.269922 1.71008C0.0899219 1.51808 -7.80821e-05 1.27808 -7.80821e-05 0.990076C-7.80821e-05 0.702076 0.0899219 0.468076 0.269922 0.288076C0.449922 0.096076 0.689922 7.59959e-05 0.989922 7.59959e-05C1.28992 7.59959e-05 1.52392 0.096076 1.69192 0.288076C1.87192 0.468076 1.96192 0.702076 1.96192 0.990076C1.96192 1.27808 1.87192 1.51808 1.69192 1.71008C1.52392 1.89008 1.28992 1.98008 0.989922 1.98008ZM5.08563 1.98008C4.78563 1.98008 4.54563 1.89008 4.36563 1.71008C4.18563 1.51808 4.09563 1.27808 4.09563 0.990076C4.09563 0.702076 4.18563 0.468076 4.36563 0.288076C4.54563 0.096076 4.78563 7.59959e-05 5.08563 7.59959e-05C5.38563 7.59959e-05 5.61963 0.096076 5.78763 0.288076C5.96763 0.468076 6.05763 0.702076 6.05763 0.990076C6.05763 1.27808 5.96763 1.51808 5.78763 1.71008C5.61963 1.89008 5.38563 1.98008 5.08563 1.98008ZM9.18133 1.98008C8.88133 1.98008 8.64133 1.89008 8.46133 1.71008C8.28133 1.51808 8.19133 1.27808 8.19133 0.990076C8.19133 0.702076 8.28133 0.468076 8.46133 0.288076C8.64133 0.096076 8.88133 7.59959e-05 9.18133 7.59959e-05C9.48133 7.59959e-05 9.71533 0.096076 9.88333 0.288076C10.0633 0.468076 10.1533 0.702076 10.1533 0.990076C10.1533 1.27808 10.0633 1.51808 9.88333 1.71008C9.71533 1.89008 9.48133 1.98008 9.18133 1.98008Z" fill="#8A95B0"/>
</svg>
