<svg width="15" height="15" viewBox="0 0 15 15" fill="none" xmlns="http://www.w3.org/2000/svg">
<g opacity="0.7">
<path d="M13.025 2.88117C12.7057 2.5618 12.3267 2.30845 11.9095 2.1356C11.4924 1.96275 11.0453 1.87378 10.5937 1.87378C10.1421 1.87378 9.69502 1.96275 9.27786 2.1356C8.86069 2.30845 8.48168 2.5618 8.16245 2.88117L7.49995 3.54367L6.83745 2.88117C6.19264 2.23636 5.3181 1.87411 4.4062 1.87411C3.49431 1.87411 2.61976 2.23636 1.97495 2.88117C1.33014 3.52598 0.967896 4.40052 0.967896 5.31242C0.967896 6.22432 1.33014 7.09886 1.97495 7.74367L2.63745 8.40617L7.49995 13.2687L12.3625 8.40617L13.025 7.74367C13.3443 7.42445 13.5977 7.04543 13.7705 6.62827C13.9434 6.21111 14.0323 5.76397 14.0323 5.31242C14.0323 4.86087 13.9434 4.41374 13.7705 3.99657C13.5977 3.57941 13.3443 3.20039 13.025 2.88117Z" stroke="#7A869E" stroke-width="1.125" stroke-linecap="round"/>
</g>
</svg>
