<svg width="20" height="22" viewBox="0 0 20 22" fill="none" xmlns="http://www.w3.org/2000/svg">
<path d="M7.62736 3.11857C7.68246 2.53891 7.95169 2.00062 8.38246 1.60885C8.81323 1.21709 9.37459 1 9.95686 1C10.5391 1 11.1005 1.21709 11.5313 1.60885C11.962 2.00062 12.2313 2.53891 12.2864 3.11857C12.3195 3.49303 12.4423 3.85399 12.6445 4.17091C12.8467 4.48783 13.1222 4.75138 13.4478 4.93925C13.7734 5.12712 14.1395 5.23378 14.5151 5.25019C14.8906 5.26661 15.2646 5.19231 15.6054 5.03357C16.1345 4.79335 16.734 4.75859 17.2874 4.93606C17.8407 5.11353 18.3082 5.49052 18.5989 5.99368C18.8896 6.49683 18.9826 7.09015 18.86 7.65814C18.7374 8.22614 18.4078 8.72819 17.9354 9.06657C17.6277 9.28242 17.3766 9.56918 17.2033 9.9026C17.0299 10.236 16.9394 10.6063 16.9394 10.9821C16.9394 11.3579 17.0299 11.7281 17.2033 12.0615C17.3766 12.395 17.6277 12.6817 17.9354 12.8976C18.4078 13.236 18.7374 13.738 18.86 14.306C18.9826 14.874 18.8896 15.4673 18.5989 15.9705C18.3082 16.4736 17.8407 16.8506 17.2874 17.0281C16.734 17.2056 16.1345 17.1708 15.6054 16.9306C15.2646 16.7718 14.8906 16.6975 14.5151 16.714C14.1395 16.7304 13.7734 16.837 13.4478 17.0249C13.1222 17.2128 12.8467 17.4763 12.6445 17.7932C12.4423 18.1102 12.3195 18.4711 12.2864 18.8456C12.2313 19.4252 11.962 19.9635 11.5313 20.3553C11.1005 20.7471 10.5391 20.9641 9.95686 20.9641C9.37459 20.9641 8.81323 20.7471 8.38246 20.3553C7.95169 19.9635 7.68246 19.4252 7.62736 18.8456C7.5943 18.471 7.47146 18.1099 7.26922 17.7928C7.06699 17.4758 6.79133 17.2122 6.46559 17.0243C6.13985 16.8364 5.77363 16.7298 5.39794 16.7135C5.02225 16.6972 4.64816 16.7716 4.30736 16.9306C3.77825 17.1708 3.17869 17.2056 2.62536 17.0281C2.07203 16.8506 1.60453 16.4736 1.31384 15.9705C1.02315 15.4673 0.930074 14.874 1.05272 14.306C1.17536 13.738 1.50496 13.236 1.97736 12.8976C2.28498 12.6817 2.53609 12.395 2.70945 12.0615C2.88281 11.7281 2.97331 11.3579 2.97331 10.9821C2.97331 10.6063 2.88281 10.236 2.70945 9.9026C2.53609 9.56918 2.28498 9.28242 1.97736 9.06657C1.50562 8.72802 1.17661 8.22617 1.05426 7.65856C0.931912 7.09094 1.02497 6.49811 1.31534 5.99529C1.60572 5.49246 2.07267 5.11555 2.62545 4.93781C3.17823 4.76008 3.77734 4.79421 4.30636 5.03357C4.64712 5.19231 5.0211 5.26661 5.39666 5.25019C5.77222 5.23378 6.13829 5.12712 6.4639 4.93925C6.7895 4.75138 7.06505 4.48783 7.26722 4.17091C7.4694 3.85399 7.59224 3.49303 7.62536 3.11857M12.9564 10.9826C12.9564 12.6394 11.6132 13.9826 9.95636 13.9826C8.2995 13.9826 6.95636 12.6394 6.95636 10.9826C6.95636 9.32572 8.2995 7.98257 9.95636 7.98257C11.6132 7.98257 12.9564 9.32572 12.9564 10.9826Z" stroke="#F3F6FC" stroke-width="2" stroke-linecap="round" stroke-linejoin="round"/>
</svg>
