<svg width="10" height="10" viewBox="0 0 10 10" fill="none" xmlns="http://www.w3.org/2000/svg">
<g clip-path="url(#clip0_104_27)">
<path d="M7.08341 8.75V7.91667C7.08341 7.47464 6.90782 7.05072 6.59526 6.73816C6.2827 6.4256 5.85878 6.25 5.41675 6.25H2.08341C1.64139 6.25 1.21746 6.4256 0.904903 6.73816C0.592343 7.05072 0.416748 7.47464 0.416748 7.91667V8.75" stroke="#5A6B8A" stroke-width="0.916667" stroke-linecap="round"/>
<path d="M3.74992 4.58333C4.67039 4.58333 5.41659 3.83714 5.41659 2.91667C5.41659 1.99619 4.67039 1.25 3.74992 1.25C2.82944 1.25 2.08325 1.99619 2.08325 2.91667C2.08325 3.83714 2.82944 4.58333 3.74992 4.58333Z" stroke="#5A6B8A" stroke-width="0.916667" stroke-linecap="round"/>
<path d="M9.58325 8.75V7.91667C9.58298 7.54739 9.46007 7.18866 9.23382 6.8968C9.00758 6.60494 8.69081 6.39649 8.33325 6.30417" stroke="#5A6B8A" stroke-width="0.916667" stroke-linecap="round"/>
<path d="M6.66675 1.30417C7.02525 1.39596 7.34301 1.60446 7.56993 1.8968C7.79685 2.18914 7.92002 2.54868 7.92002 2.91875C7.92002 3.28882 7.79685 3.64837 7.56993 3.94071C7.34301 4.23304 7.02525 4.44154 6.66675 4.53334" stroke="#5A6B8A" stroke-width="0.916667" stroke-linecap="round"/>
</g>
<defs>
<clipPath id="clip0_104_27">
<rect width="10" height="10" fill="white"/>
</clipPath>
</defs>
</svg>
